# xmcd
#
# Track frame offsets:
#	150
#	17670
#	30548
#	48878
#	68205
#	89153
#	104296
#	122446
#	134731
#	161941
#
# Disc length: 2385 seconds
#
# Revision: 1
# Processed by: cddbd v1.5.1PL0 Copyright (c) Steve Scherf et al.
# Submitted via: audiograbber 1.83.01
#
DISCID=88094f0a
DTITLE=Boyd Small - Four and one
DYEAR=2005
DGENRE=
TTITLE0=daddy rollin stone
TTITLE1=here come the tears
TTITLE2=paper rock scissors
TTITLE3=I want you
TTITLE4=in the big man's eyes
TTITLE5=louisiana hanna
TTITLE6=it's safe to say
TTITLE7=what you won't
TTITLE8=easy bait
TTITLE9=last flight
EXTD=
EXTT0=
EXTT1=
EXTT2=
EXTT3=
EXTT4=
EXTT5=
EXTT6=
EXTT7=
EXTT8=
EXTT9=
PLAYORDER=
